<svg xmlns="http://www.w3.org/2000/svg" xmlns:xlink="http://www.w3.org/1999/xlink" viewBox="0,0,256,256" width="30px" height="30px" fill-rule="nonzero"><g fill="#ffffff" fill-rule="nonzero" stroke="none" stroke-width="1" stroke-linecap="butt" stroke-linejoin="miter" stroke-miterlimit="10" stroke-dasharray="" stroke-dashoffset="0" font-family="none" font-weight="none" font-size="none" text-anchor="none" style="mix-blend-mode: normal"><g transform="scale(8.53333,8.53333)"><path d="M25.6,6.5c-0.3,-0.3 -0.7,-0.5 -1.1,-0.5h-4.5c-0.5,-2.3 -2.5,-4 -4.9,-4c-2.4,0 -4.4,1.7 -4.9,4h-4.6c-0.4,0 -0.8,0.2 -1.1,0.5c-0.4,0.3 -0.5,0.8 -0.5,1.2l0.7,15.2c0.1,1.8 1.5,3.1 3.2,3.1h14.1c1.7,0 3.2,-1.4 3.2,-3.1l0.8,-15.2c0,-0.4 -0.1,-0.9 -0.4,-1.2zM15,4c1.3,0 2.4,0.8 2.8,2h-5.6c0.4,-1.1 1.5,-2 2.8,-2zM15,22c-2.5,0 -4.2,-1.8 -4.2,-1.8l1.1,-1.8c0,0 2,1.5 3.2,1.5c1.1,0 2.1,-0.6 2.1,-1.4c0,-0.9 -0.6,-1.3 -2.4,-1.9c-1.5,-0.6 -3.5,-1.3 -3.5,-3.4c0,-1.9 1.7,-3.3 3.9,-3.3c2.5,0 3.8,1.4 3.8,1.4l-1,1.7c0,0 -1.5,-1.1 -2.8,-1.1c-1.1,0 -1.9,0.5 -1.9,1.3c0,0.6 0.6,1 2.1,1.5c1.6,0.6 3.8,1.4 3.8,3.8c-0.1,2 -1.9,3.5 -4.2,3.5z" id="Слой_1"></path></g></g></svg>