<svg xmlns="http://www.w3.org/2000/svg" xmlns:xlink="http://www.w3.org/1999/xlink" viewBox="0,0,256,256" width="100px" height="100px" fill-rule="nonzero"><g fill="#ffffff" fill-rule="nonzero" stroke="none" stroke-width="1" stroke-linecap="butt" stroke-linejoin="miter" stroke-miterlimit="10" stroke-dasharray="" stroke-dashoffset="0" font-family="none" font-weight="none" font-size="none" text-anchor="none" style="mix-blend-mode: normal"><g transform="scale(2.56,2.56)"><path d="M74.007,18.001c0.204,0 0.403,0.056 0.576,0.163l16.427,10.109c0.61,0.375 0.989,1.054 0.989,1.77v29.085c0,0.724 -0.367,1.384 -0.982,1.766l-39.962,24.805c-0.317,0.197 -0.682,0.301 -1.055,0.301c-0.373,0 -0.738,-0.104 -1.055,-0.301l-39.963,-24.804c-0.615,-0.382 -0.982,-1.042 -0.982,-1.766v-29.085c0,-0.716 0.379,-1.395 0.989,-1.77l16.427,-10.109c0.173,-0.107 0.373,-0.163 0.576,-0.163c0.205,0 0.406,0.057 0.58,0.165l15.354,9.53c2.426,1.506 5.218,2.302 8.073,2.302c2.855,0 5.647,-0.796 8.073,-2.302l15.354,-9.53c0.176,-0.109 0.376,-0.166 0.581,-0.166"></path><path d="M50,52l-41.772,-22.875c-0.141,0.283 -0.228,0.595 -0.228,0.919v29.085c0,0.724 0.367,1.384 0.982,1.766l39.963,24.805c0.317,0.196 0.682,0.3 1.055,0.3z"></path><path d="M50,52l41.772,-22.875c0.141,0.283 0.228,0.595 0.228,0.919v29.085c0,0.724 -0.367,1.384 -0.982,1.766l-39.963,24.804c-0.317,0.197 -0.682,0.301 -1.055,0.301z"></path><path d="M92,30.04v29.09c0,0.72 -0.37,1.38 -0.98,1.76l-6.02,3.74v-31.8l6.77,-3.71c0.14,0.29 0.23,0.6 0.23,0.92z"></path><path d="M85,32.83v31.8l-6,3.72v-32.24z"></path><path d="M79,36.11v32.24l-6,3.73v-32.68z"></path><path d="M73,39.4v32.68l-6,3.72v-33.11z"></path><path d="M41,27.12v19.95l-6,-3.29v-20.38z"></path><path d="M47,29.7v20.66l-6,-3.29v-19.95l0.93,0.58c1.56,0.97 3.28,1.64 5.07,2z"></path><path d="M53,29.7v20.66l-3,1.64l-3,-1.64v-20.66c0.98,0.2 1.99,0.3 3,0.3c1.01,0 2.02,-0.1 3,-0.3z"></path><path d="M59,27.12v19.95l-6,3.29v-20.66c1.79,-0.36 3.51,-1.03 5.07,-2z"></path><path d="M65,23.4v20.38l-6,3.29v-19.95z"></path><path d="M91.77,29.12l-26.77,14.66v-20.38l8.43,-5.23c0.17,-0.11 0.37,-0.17 0.58,-0.17c0.2,0 0.4,0.06 0.57,0.16l16.43,10.11c0.33,0.21 0.6,0.51 0.76,0.85z"></path><path d="M50,87c-0.559,0 -1.105,-0.156 -1.582,-0.451l-39.963,-24.805c-0.911,-0.565 -1.455,-1.543 -1.455,-2.616v-29.084c0,-1.062 0.562,-2.066 1.465,-2.622l16.427,-10.109c0.665,-0.409 1.542,-0.408 2.207,0.002l15.355,9.532c2.268,1.407 4.877,2.151 7.546,2.151c2.669,0 5.278,-0.744 7.546,-2.151l15.354,-9.53c0.669,-0.414 1.544,-0.413 2.209,-0.004l16.427,10.109c0.902,0.556 1.464,1.56 1.464,2.622v29.084c0,1.072 -0.544,2.05 -1.455,2.616l-39.963,24.805c-0.477,0.295 -1.023,0.451 -1.582,0.451zM25.416,18.165l0.524,0.852l-16.426,10.108c-0.318,0.195 -0.514,0.547 -0.514,0.919v29.084c0,0.376 0.19,0.718 0.51,0.917l39.963,24.805c0.316,0.196 0.738,0.197 1.055,0l39.962,-24.805c0.32,-0.198 0.51,-0.541 0.51,-0.917v-29.084c0,-0.372 -0.196,-0.724 -0.514,-0.919l-16.479,-10.124c-0.02,0 -0.038,0.005 -0.055,0.016l-15.352,9.529c-2.584,1.604 -5.559,2.452 -8.601,2.452c-3.042,0 -6.017,-0.848 -8.601,-2.452l-15.354,-9.53z"></path><path d="M50,52.57l-42.24,-23.132l0.48,-0.876l41.76,22.868l41.76,-22.868l0.48,0.876z"></path><rect x="49.5" y="52" width="1" height="35"></rect><path d="M29.5,68.833c-0.091,0 -0.182,-0.024 -0.264,-0.075l-16.055,-9.965c-0.74,-0.46 -1.181,-1.254 -1.181,-2.124v-21.169c0,-0.276 0.224,-0.5 0.5,-0.5c0.276,0 0.5,0.224 0.5,0.5v21.169c0,0.522 0.265,0.999 0.709,1.274l16.055,9.965c0.234,0.146 0.307,0.454 0.161,0.688c-0.095,0.153 -0.258,0.237 -0.425,0.237z"></path><path d="M44.5,78.144c-0.091,0 -0.182,-0.024 -0.264,-0.075l-1,-0.621c-0.234,-0.146 -0.307,-0.454 -0.161,-0.688c0.146,-0.235 0.456,-0.305 0.688,-0.161l1,0.621c0.234,0.146 0.307,0.454 0.161,0.688c-0.094,0.152 -0.257,0.236 -0.424,0.236z"></path><path d="M40.5,75.661c-0.091,0 -0.182,-0.024 -0.264,-0.075l-4,-2.483c-0.234,-0.146 -0.307,-0.454 -0.161,-0.688c0.146,-0.235 0.456,-0.304 0.688,-0.161l4,2.483c0.234,0.146 0.307,0.454 0.161,0.688c-0.094,0.152 -0.257,0.236 -0.424,0.236z"></path><path d="M84.418,30c-0.09,0 -0.181,-0.024 -0.262,-0.074l-9.351,-5.754c-0.489,-0.3 -1.093,-0.298 -1.577,0.003l-5.465,3.392c-0.232,0.146 -0.542,0.074 -0.688,-0.161c-0.146,-0.234 -0.073,-0.543 0.161,-0.688l5.465,-3.392c0.811,-0.503 1.817,-0.504 2.628,-0.005l9.351,5.754c0.235,0.145 0.309,0.453 0.164,0.688c-0.095,0.153 -0.259,0.237 -0.426,0.237z"></path><path d="M63.701,30c-0.167,0 -0.33,-0.084 -0.425,-0.236c-0.146,-0.235 -0.073,-0.543 0.161,-0.688l1.611,-1c0.233,-0.144 0.542,-0.074 0.688,0.161c0.146,0.235 0.073,0.543 -0.161,0.688l-1.611,1c-0.081,0.051 -0.172,0.075 -0.263,0.075z"></path></g></g></svg>